/* XPM */
static const char *lp_in_js_gui_ico_si8[] = {
/* width height num_colors chars_per_pixel */
"    16    16      256            2",
/* colors */
"`` c #000000",
"`. c #800000",
"`# c #008000",
"`a c #808000",
"`b c #000080",
"`c c #800080",
"`d c #008080",
"`e c #c0c0c0",
"`f c #c0dcc0",
"`g c #a6caf0",
"`h c #402000",
"`i c #602000",
"`j c #802000",
"`k c #a02000",
"`l c #c02000",
"`m c #e02000",
"`n c #004000",
"`o c #204000",
"`p c #404000",
"`q c #604000",
"`r c #804000",
"`s c #a04000",
"`t c #c04000",
"`u c #e04000",
"`v c #006000",
"`w c #206000",
"`x c #406000",
"`y c #606000",
"`z c #806000",
"`A c #a06000",
"`B c #c06000",
"`C c #e06000",
"`D c #008000",
"`E c #208000",
"`F c #408000",
"`G c #608000",
"`H c #808000",
"`I c #a08000",
"`J c #c08000",
"`K c #e08000",
"`L c #00a000",
"`M c #20a000",
"`N c #40a000",
"`O c #60a000",
"`P c #80a000",
"`Q c #a0a000",
"`R c #c0a000",
"`S c #e0a000",
"`T c #00c000",
"`U c #20c000",
"`V c #40c000",
"`W c #60c000",
"`X c #80c000",
"`Y c #a0c000",
"`Z c #c0c000",
"`0 c #e0c000",
"`1 c #00e000",
"`2 c #20e000",
"`3 c #40e000",
"`4 c #60e000",
"`5 c #80e000",
"`6 c #a0e000",
"`7 c #c0e000",
"`8 c #e0e000",
".` c #000040",
".. c #200040",
".# c #400040",
".a c #600040",
".b c #800040",
".c c #a00040",
".d c #c00040",
".e c #e00040",
".f c #002040",
".g c #202040",
".h c #402040",
".i c #602040",
".j c #802040",
".k c #a02040",
".l c #c02040",
".m c #e02040",
".n c #004040",
".o c #204040",
".p c #404040",
".q c #604040",
".r c #804040",
".s c #a04040",
".t c #c04040",
".u c #e04040",
".v c #006040",
".w c #206040",
".x c #406040",
".y c #606040",
".z c #806040",
".A c #a06040",
".B c #c06040",
".C c #e06040",
".D c #008040",
".E c #208040",
".F c #408040",
".G c #608040",
".H c #808040",
".I c #a08040",
".J c #c08040",
".K c #e08040",
".L c #00a040",
".M c #20a040",
".N c #40a040",
".O c #60a040",
".P c #80a040",
".Q c #a0a040",
".R c #c0a040",
".S c #e0a040",
".T c #00c040",
".U c #20c040",
".V c #40c040",
".W c #60c040",
".X c #80c040",
".Y c #a0c040",
".Z c #c0c040",
".0 c #e0c040",
".1 c #00e040",
".2 c #20e040",
".3 c #40e040",
".4 c #60e040",
".5 c #80e040",
".6 c #a0e040",
".7 c #c0e040",
".8 c #e0e040",
"#` c #000080",
"#. c #200080",
"## c #400080",
"#a c #600080",
"#b c #800080",
"#c c #a00080",
"#d c #c00080",
"#e c #e00080",
"#f c #002080",
"#g c #202080",
"#h c #402080",
"#i c #602080",
"#j c #802080",
"#k c #a02080",
"#l c #c02080",
"#m c #e02080",
"#n c #004080",
"#o c #204080",
"#p c #404080",
"#q c #604080",
"#r c #804080",
"#s c #a04080",
"#t c #c04080",
"#u c #e04080",
"#v c #006080",
"#w c #206080",
"#x c #406080",
"#y c #606080",
"#z c #806080",
"#A c #a06080",
"#B c #c06080",
"#C c #e06080",
"#D c #008080",
"#E c #208080",
"#F c #408080",
"#G c #608080",
"#H c #808080",
"#I c #a08080",
"#J c #c08080",
"#K c #e08080",
"#L c #00a080",
"#M c #20a080",
"#N c #40a080",
"#O c #60a080",
"#P c #80a080",
"#Q c #a0a080",
"#R c #c0a080",
"#S c #e0a080",
"#T c #00c080",
"#U c #20c080",
"#V c #40c080",
"#W c #60c080",
"#X c #80c080",
"#Y c #a0c080",
"#Z c #c0c080",
"#0 c #e0c080",
"#1 c #00e080",
"#2 c #20e080",
"#3 c #40e080",
"#4 c #60e080",
"#5 c #80e080",
"#6 c #a0e080",
"#7 c #c0e080",
"#8 c #e0e080",
"a` c #0000c0",
"a. c #2000c0",
"a# c #4000c0",
"aa c #6000c0",
"ab c #8000c0",
"ac c #a000c0",
"ad c #c000c0",
"ae c #e000c0",
"af c #0020c0",
"ag c #2020c0",
"ah c #4020c0",
"ai c #6020c0",
"aj c #8020c0",
"ak c #a020c0",
"al c #c020c0",
"am c #e020c0",
"an c #0040c0",
"ao c #2040c0",
"ap c #4040c0",
"aq c #6040c0",
"ar c #8040c0",
"as c #a040c0",
"at c #c040c0",
"au c #e040c0",
"av c #0060c0",
"aw c #2060c0",
"ax c #4060c0",
"ay c #6060c0",
"az c #8060c0",
"aA c #a060c0",
"aB c #c060c0",
"aC c #e060c0",
"aD c #0080c0",
"aE c #2080c0",
"aF c #4080c0",
"aG c #6080c0",
"aH c #8080c0",
"aI c #a080c0",
"aJ c #c080c0",
"aK c #e080c0",
"aL c #00a0c0",
"aM c #20a0c0",
"aN c #40a0c0",
"aO c #60a0c0",
"aP c #80a0c0",
"aQ c #a0a0c0",
"aR c #c0a0c0",
"aS c #e0a0c0",
"aT c #00c0c0",
"aU c #20c0c0",
"aV c #40c0c0",
"aW c #60c0c0",
"aX c #80c0c0",
"aY c #a0c0c0",
"aZ c #fffbf0",
"a0 c #a0a0a4",
"a1 c #808080",
"a2 c #ff0000",
"a3 c #00ff00",
"a4 c #ffff00",
"a5 c #0000ff",
"a6 c #ff00ff",
"a7 c #00ffff",
"a8 c #ffffff",
/* pixels */
"a8a8a8a8a8a8a8a8a8a8a8a8a8a8a8a8",
"a8a8`e`e`e`e`e`e`e`e`e`e`e`ea8a8",
"a8`e`eaZaZaZaZaZaZaZaZaZaZ`e`ea8",
"a8`eaZaZaZaZaZaZaZaZaZaZaZaZ`ea8",
"a8`eaZaZ.U.U.U.U.U.U.U.U.UaZ`ea8",
"a8`eaZaZ.U.U.U.U.U.U.U.U.UaZ`ea8",
"a8`eaZaZ.U.U.U.U.U.U.U.U.UaZ`ea8",
"a8`eaZaZ.U`e`e`e`e`e`e`e.UaZ`ea8",
"a8`eaZaZ.U`e`e`e`e`e`e`e.UaZ`ea8",
"a8`eaZaZ.U`e`e`e`e`e`e`e.UaZ`ea8",
"a8`eaZaZ.U`e`e`e`e`e`e`e.UaZ`ea8",
"a8`eaZaZ.U.U.U.U.U.U.U.U.UaZ`ea8",
"a8`eaZaZaZaZaZaZaZaZaZaZaZaZ`ea8",
"a8`e`eaZaZaZaZaZaZaZaZaZaZ`e`ea8",
"a8a8`e`e`e`e`e`e`e`e`e`e`e`ea8a8",
"a8a8a8a8a8a8a8a8a8a8a8a8a8a8a8a8"
};
