/* XPM */
static const char *lp_signal_value_si8[] = {
/* width height num_colors chars_per_pixel */
"    16    16        8            1",
/* colors */
"` c #ffffff",
". c #000000",
"# c #00a2e8",
"a c #7f7f7f",
"b c #000000",
"c c #000000",
"d c #000000",
"e c #000000",
/* pixels */
"````````````````",
"````````````````",
"````````````````",
"````````````````",
"````........````",
"````###aa.a.````",
"```##a##aa..````",
"``##.aa##aa.````",
"`##`.aaa##a.`##`",
"````..a.a##.##``",
"````.a.aaa###```",
"````........````",
"````````````````",
"````````````````",
"````````````````",
"````````````````"
};
