/* XPM */
static const char *lp_class_public_si8[] = {
/* width height num_colors chars_per_pixel */
"    16    16       16            1",
/* colors */
"` c None",
". c #22b14c",
"# c #7f7f7f",
"a c #fff200",
"b c #3f48cc",
"c c #ed1c24",
"d c #000000",
"e c #000000",
"f c #000000",
"g c #000000",
"h c #000000",
"i c #000000",
"j c #000000",
"k c #000000",
"l c #000000",
"m c #000000",
/* pixels */
"````````````````",
"````````````````",
"``........``````",
"`..........`````",
"`..........##```",
"`..........aa#``",
"`..........aa#``",
"`..........aa#``",
"`..........aa#``",
"`..........bb#``",
"``........bbb#``",
"````#ccccbbbb#``",
"````#ccccbbbb#``",
"`````########```",
"````````````````",
"````````````````"
};
