/* XPM */
static const char *lp_find_next_si8[] = {
/* width height num_colors chars_per_pixel */
"    16    16       16            1",
/* colors */
"` c None",
". c #000000",
"# c #00a2e8",
"a c #b97a57",
"b c #22b14c",
"c c #42ac3b",
"d c #000000",
"e c #000000",
"f c #000000",
"g c #000000",
"h c #000000",
"i c #000000",
"j c #000000",
"k c #000000",
"l c #000000",
"m c #000000",
/* pixels */
"````````````````",
"`````..`````````",
"```..##..```````",
"``.######.``````",
"``.######.``````",
"`.########.`````",
"`.########.`````",
"``.######.``````",
"``.######.ab````",
"```..###.aabb```",
"`````.bbbbbbbb``",
"``````bbbbbbbbb`",
"``````bbbbbcbb``",
"```````````bb```",
"```````````b````",
"````````````````"
};
