/* XPM */
static const char *lp_find_si8[] = {
/* width height num_colors chars_per_pixel */
"    16    16       16            1",
/* colors */
"` c None",
". c #000000",
"# c #000000",
"a c #00a2e8",
"b c #000000",
"c c #b97a57",
"d c #000000",
"e c #000000",
"f c #000000",
"g c #000000",
"h c #000000",
"i c #000000",
"j c #000000",
"k c #000000",
"l c #000000",
"m c #000000",
/* pixels */
"````````````````",
"`````##`````````",
"```##aa##```````",
"``#aaaaaa#``````",
"``#aaaaaa#``````",
"`#aaaaaaaa#`````",
"`#aaaaaaaa#`````",
"``#aaaaaa#``````",
"``#aaaaaa#c`````",
"```##aa##ccc````",
"`````##`ccccc```",
"`````````ccccc``",
"``````````ccc```",
"```````````c````",
"````````````````",
"````````````````"
};
