/* XPM */
static const char *lp_new_template_si8[] = {
/* width height num_colors chars_per_pixel */
"    16    15       16            1",
/* colors */
"` c None",
". c #000000",
"# c #00a2e8",
"a c #20c040",
"b c #ffff00",
"c c #000000",
"d c #000000",
"e c #000000",
"f c #000000",
"g c #000000",
"h c #000000",
"i c #000000",
"j c #000000",
"k c #000000",
"l c #000000",
"m c #000000",
/* pixels */
"````````````````",
"```.......``````",
"```.````.`.`````",
"```.`###.``.````",
"```.````.```.```",
"```.`###.....```",
"```.``````aaa```",
"```.`###aaabaaa`",
"```.````abababa`",
"```.`##aaabbbaaa",
"```.```abbbbbbba",
"```.```aaabbbaaa",
"```.....abababa`",
"````````aaabaaa`",
"``````````aaa```"
};
