/* XPM */
static const char *lp_open_si8[] = {
/* width height num_colors chars_per_pixel */
"    16    15       16            1",
/* colors */
"` c #808080",
". c None",
"# c #000000",
"a c #a0e040",
"b c #800080",
"c c #008080",
"d c #c0c0c0",
"e c #c0dcc0",
"f c #a6caf0",
"g c #000080",
"h c #402000",
"i c #602000",
"j c #802000",
"k c #a02000",
"l c #c02000",
"m c #e02000",
/* pixels */
"................",
"......###.......",
"######aaa#......",
"#`````##aa#.....",
"#```````#aa#....",
"#```````#aa#....",
"#`#######aa#####",
"#`#```#aaaaaa#`#",
"#`#````#aaaa#``#",
"##``````#aa#``#.",
"##```````##```#.",
"#`````````````#.",
"#````````````#..",
"##############..",
"................"
};
