/* XPM */
static const char *lp_quit_si8[] = {
/* width height num_colors chars_per_pixel */
"    16    16        8            1",
/* colors */
"` c None",
". c #000000",
"# c #ed1c24",
"a c #000000",
"b c #000000",
"c c #000000",
"d c #000000",
"e c #000000",
/* pixels */
"````````````````",
"````````````````",
"````````````````",
"``````....``````",
"`````.####.`````",
"````.######.````",
"```.##.##.##.```",
"```.###..###.```",
"```.###..###.```",
"```.##.##.##.```",
"````.######.````",
"`````.####.`````",
"``````....``````",
"````````````````",
"````````````````",
"````````````````"
};
