/* XPM */
static const char *lp_save_si8[] = {
/* width height num_colors chars_per_pixel */
"    16    16       16            1",
/* colors */
"` c None",
". c #000000",
"# c #4040c0",
"a c #c0c0c0",
"b c #e02040",
"c c #808080",
"d c #800080",
"e c #808000",
"f c #008000",
"g c #000080",
"h c #008080",
"i c #602000",
"j c #802000",
"k c #800000",
"l c #c02000",
"m c #c0dcc0",
/* pixels */
"````````````````",
"````````````````",
"```.........````",
"``.#.ccccc.#.```",
"``.#.ccccc.#.```",
"``.##.....##.```",
"``.#########.```",
"``.#########.```",
"``.#########.```",
"``.#aaaaaaa#.```",
"``.#abbbbba#.```",
"``.#abbbbba#.```",
"``.#aaaaaaa#.```",
"```.........````",
"````````````````",
"````````````````"
};
